<svg width="135" height="190" viewBox="0 0 135 190" fill="none" xmlns="http://www.w3.org/2000/svg">
<circle r="5" transform="matrix(0 1 1 0 125 5)" fill="#FABD17" fill-opacity="0.4"/>
<circle r="5" transform="matrix(0 1 1 0 110 5)" fill="#FABD17" fill-opacity="0.4"/>
<circle r="5" transform="matrix(0 1 1 0 95 5)" fill="#FABD17" fill-opacity="0.4"/>
<circle r="5" transform="matrix(0 1 1 0 80 5)" fill="#FABD17" fill-opacity="0.4"/>
<circle r="5" transform="matrix(0 1 1 0 65 5)" fill="#FABD17" fill-opacity="0.4"/>
<circle r="5" transform="matrix(0 1 1 0 50 5)" fill="#FABD17" fill-opacity="0.4"/>
<circle r="5" transform="matrix(0 1 1 0 35 5)" fill="#FABD17" fill-opacity="0.4"/>
<circle r="5" transform="matrix(0 1 1 0 20 5)" fill="#FABD17" fill-opacity="0.4"/>
<circle r="5" transform="matrix(0 1 1 0 5 5)" fill="#FABD17" fill-opacity="0.4"/>
<circle r="5" transform="matrix(0 1 1 0 125 20)" fill="#FABD17" fill-opacity="0.4"/>
<circle r="5" transform="matrix(0 1 1 0 110 20)" fill="#FABD17" fill-opacity="0.4"/>
<circle r="5" transform="matrix(0 1 1 0 95 20)" fill="#FABD17" fill-opacity="0.4"/>
<circle r="5" transform="matrix(0 1 1 0 80 20)" fill="#FABD17" fill-opacity="0.4"/>
<circle r="5" transform="matrix(0 1 1 0 65 20)" fill="#FABD17" fill-opacity="0.4"/>
<circle r="5" transform="matrix(0 1 1 0 50 20)" fill="#FABD17" fill-opacity="0.4"/>
<circle r="5" transform="matrix(0 1 1 0 35 20)" fill="#FABD17" fill-opacity="0.4"/>
<circle r="5" transform="matrix(0 1 1 0 20 20)" fill="#FABD17" fill-opacity="0.4"/>
<circle r="5" transform="matrix(0 1 1 0 125 35)" fill="#FABD17" fill-opacity="0.4"/>
<circle r="5" transform="matrix(0 1 1 0 110 35)" fill="#FABD17" fill-opacity="0.4"/>
<circle r="5" transform="matrix(0 1 1 0 95 35)" fill="#FABD17" fill-opacity="0.4"/>
<circle r="5" transform="matrix(0 1 1 0 80 35)" fill="#FABD17" fill-opacity="0.4"/>
<circle r="5" transform="matrix(0 1 1 0 65 35)" fill="#FABD17" fill-opacity="0.4"/>
<circle r="5" transform="matrix(0 1 1 0 50 35)" fill="#FABD17" fill-opacity="0.4"/>
<circle r="5" transform="matrix(0 1 1 0 35 35)" fill="#FABD17" fill-opacity="0.4"/>
<circle r="5" transform="matrix(0 1 1 0 125 50)" fill="#FABD17" fill-opacity="0.4"/>
<circle r="5" transform="matrix(0 1 1 0 110 50)" fill="#FABD17" fill-opacity="0.4"/>
<circle r="5" transform="matrix(0 1 1 0 95 50)" fill="#FABD17" fill-opacity="0.4"/>
<circle r="5" transform="matrix(0 1 1 0 80 50)" fill="#FABD17" fill-opacity="0.4"/>
<circle r="5" transform="matrix(0 1 1 0 65 50)" fill="#FABD17" fill-opacity="0.4"/>
<circle r="5" transform="matrix(0 1 1 0 50 50)" fill="#FABD17" fill-opacity="0.4"/>
<circle r="5" transform="matrix(0 1 1 0 125 65)" fill="#FABD17" fill-opacity="0.4"/>
<circle r="5" transform="matrix(0 1 1 0 110 65)" fill="#FABD17" fill-opacity="0.4"/>
<circle r="5" transform="matrix(0 1 1 0 95 65)" fill="#FABD17" fill-opacity="0.4"/>
<circle r="5" transform="matrix(0 1 1 0 80 65)" fill="#FABD17" fill-opacity="0.4"/>
<circle r="5" transform="matrix(0 1 1 0 65 65)" fill="#FABD17" fill-opacity="0.4"/>
<circle r="5" transform="matrix(0 1 1 0 125 80)" fill="#FABD17" fill-opacity="0.4"/>
<circle r="5" transform="matrix(0 1 1 0 110 80)" fill="#FABD17" fill-opacity="0.4"/>
<circle r="5" transform="matrix(0 1 1 0 95 80)" fill="#FABD17" fill-opacity="0.4"/>
<circle r="5" transform="matrix(0 1 1 0 80 80)" fill="#FABD17" fill-opacity="0.4"/>
<circle r="5" transform="matrix(0 1 1 0 125 95)" fill="#FABD17" fill-opacity="0.4"/>
<circle r="5" transform="matrix(0 1 1 0 110 95)" fill="#FABD17" fill-opacity="0.4"/>
<circle r="5" transform="matrix(0 1 1 0 95 95)" fill="#FABD17" fill-opacity="0.4"/>
<circle r="5" transform="matrix(0 1 1 0 125 110)" fill="#FABD17" fill-opacity="0.4"/>
<circle r="5" transform="matrix(0 1 1 0 110 110)" fill="#FABD17" fill-opacity="0.4"/>
<circle r="5" transform="matrix(0 1 1 0 125 125)" fill="#FABD17" fill-opacity="0.4"/>
</svg>
