<svg width="164" height="190" viewBox="0 0 164 190" fill="none" xmlns="http://www.w3.org/2000/svg">
<circle r="5" transform="matrix(0 -1 -1 0 9 185)" fill="#FABD17" fill-opacity="0.4"/>
<circle r="5" transform="matrix(0 -1 -1 0 24 185)" fill="#FABD17" fill-opacity="0.4"/>
<circle r="5" transform="matrix(0 -1 -1 0 39 185)" fill="#FABD17" fill-opacity="0.4"/>
<circle r="5" transform="matrix(0 -1 -1 0 54 185)" fill="#FABD17" fill-opacity="0.4"/>
<circle r="5" transform="matrix(0 -1 -1 0 69 185)" fill="#FABD17" fill-opacity="0.4"/>
<circle r="5" transform="matrix(0 -1 -1 0 84 185)" fill="#FABD17" fill-opacity="0.4"/>
<circle r="5" transform="matrix(0 -1 -1 0 99 185)" fill="#FABD17" fill-opacity="0.4"/>
<circle r="5" transform="matrix(0 -1 -1 0 114 185)" fill="#FABD17" fill-opacity="0.4"/>
<circle r="5" transform="matrix(0 -1 -1 0 129 185)" fill="#FABD17" fill-opacity="0.4"/>
<circle r="5" transform="matrix(0 -1 -1 0 144 185)" fill="#FABD17" fill-opacity="0.4"/>
<circle r="5" transform="matrix(0 -1 -1 0 159 185)" fill="#FABD17" fill-opacity="0.4"/>
<circle r="5" transform="matrix(0 -1 -1 0 9 170)" fill="#FABD17" fill-opacity="0.4"/>
<circle r="5" transform="matrix(0 -1 -1 0 24 170)" fill="#FABD17" fill-opacity="0.4"/>
<circle r="5" transform="matrix(0 -1 -1 0 39 170)" fill="#FABD17" fill-opacity="0.4"/>
<circle r="5" transform="matrix(0 -1 -1 0 54 170)" fill="#FABD17" fill-opacity="0.4"/>
<circle r="5" transform="matrix(0 -1 -1 0 69 170)" fill="#FABD17" fill-opacity="0.4"/>
<circle r="5" transform="matrix(0 -1 -1 0 84 170)" fill="#FABD17" fill-opacity="0.4"/>
<circle r="5" transform="matrix(0 -1 -1 0 99 170)" fill="#FABD17" fill-opacity="0.4"/>
<circle r="5" transform="matrix(0 -1 -1 0 114 170)" fill="#FABD17" fill-opacity="0.4"/>
<circle r="5" transform="matrix(0 -1 -1 0 129 170)" fill="#FABD17" fill-opacity="0.4"/>
<circle r="5" transform="matrix(0 -1 -1 0 144 170)" fill="#FABD17" fill-opacity="0.4"/>
<circle r="5" transform="matrix(0 -1 -1 0 9 155)" fill="#FABD17" fill-opacity="0.4"/>
<circle r="5" transform="matrix(0 -1 -1 0 24 155)" fill="#FABD17" fill-opacity="0.4"/>
<circle r="5" transform="matrix(0 -1 -1 0 39 155)" fill="#FABD17" fill-opacity="0.4"/>
<circle r="5" transform="matrix(0 -1 -1 0 54 155)" fill="#FABD17" fill-opacity="0.4"/>
<circle r="5" transform="matrix(0 -1 -1 0 69 155)" fill="#FABD17" fill-opacity="0.4"/>
<circle r="5" transform="matrix(0 -1 -1 0 84 155)" fill="#FABD17" fill-opacity="0.4"/>
<circle r="5" transform="matrix(0 -1 -1 0 99 155)" fill="#FABD17" fill-opacity="0.4"/>
<circle r="5" transform="matrix(0 -1 -1 0 114 155)" fill="#FABD17" fill-opacity="0.4"/>
<circle r="5" transform="matrix(0 -1 -1 0 129 155)" fill="#FABD17" fill-opacity="0.4"/>
<circle r="5" transform="matrix(0 -1 -1 0 9 140)" fill="#FABD17" fill-opacity="0.4"/>
<circle r="5" transform="matrix(0 -1 -1 0 24 140)" fill="#FABD17" fill-opacity="0.4"/>
<circle r="5" transform="matrix(0 -1 -1 0 39 140)" fill="#FABD17" fill-opacity="0.4"/>
<circle r="5" transform="matrix(0 -1 -1 0 54 140)" fill="#FABD17" fill-opacity="0.4"/>
<circle r="5" transform="matrix(0 -1 -1 0 69 140)" fill="#FABD17" fill-opacity="0.4"/>
<circle r="5" transform="matrix(0 -1 -1 0 84 140)" fill="#FABD17" fill-opacity="0.4"/>
<circle r="5" transform="matrix(0 -1 -1 0 99 140)" fill="#FABD17" fill-opacity="0.4"/>
<circle r="5" transform="matrix(0 -1 -1 0 114 140)" fill="#FABD17" fill-opacity="0.4"/>
<circle r="5" transform="matrix(0 -1 -1 0 9 125)" fill="#FABD17" fill-opacity="0.4"/>
<circle r="5" transform="matrix(0 -1 -1 0 24 125)" fill="#FABD17" fill-opacity="0.4"/>
<circle r="5" transform="matrix(0 -1 -1 0 39 125)" fill="#FABD17" fill-opacity="0.4"/>
<circle r="5" transform="matrix(0 -1 -1 0 54 125)" fill="#FABD17" fill-opacity="0.4"/>
<circle r="5" transform="matrix(0 -1 -1 0 69 125)" fill="#FABD17" fill-opacity="0.4"/>
<circle r="5" transform="matrix(0 -1 -1 0 84 125)" fill="#FABD17" fill-opacity="0.4"/>
<circle r="5" transform="matrix(0 -1 -1 0 99 125)" fill="#FABD17" fill-opacity="0.4"/>
<circle r="5" transform="matrix(0 -1 -1 0 9 110)" fill="#FABD17" fill-opacity="0.4"/>
<circle r="5" transform="matrix(0 -1 -1 0 24 110)" fill="#FABD17" fill-opacity="0.4"/>
<circle r="5" transform="matrix(0 -1 -1 0 39 110)" fill="#FABD17" fill-opacity="0.4"/>
<circle r="5" transform="matrix(0 -1 -1 0 54 110)" fill="#FABD17" fill-opacity="0.4"/>
<circle r="5" transform="matrix(0 -1 -1 0 69 110)" fill="#FABD17" fill-opacity="0.4"/>
<circle r="5" transform="matrix(0 -1 -1 0 84 110)" fill="#FABD17" fill-opacity="0.4"/>
<circle r="5" transform="matrix(0 -1 -1 0 9 95)" fill="#FABD17" fill-opacity="0.4"/>
<circle r="5" transform="matrix(0 -1 -1 0 24 95)" fill="#FABD17" fill-opacity="0.4"/>
<circle r="5" transform="matrix(0 -1 -1 0 39 95)" fill="#FABD17" fill-opacity="0.4"/>
<circle r="5" transform="matrix(0 -1 -1 0 54 95)" fill="#FABD17" fill-opacity="0.4"/>
<circle r="5" transform="matrix(0 -1 -1 0 69 95)" fill="#FABD17" fill-opacity="0.4"/>
<circle r="5" transform="matrix(0 -1 -1 0 9 80)" fill="#FABD17" fill-opacity="0.4"/>
<circle r="5" transform="matrix(0 -1 -1 0 24 80)" fill="#FABD17" fill-opacity="0.4"/>
<circle r="5" transform="matrix(0 -1 -1 0 39 80)" fill="#FABD17" fill-opacity="0.4"/>
<circle r="5" transform="matrix(0 -1 -1 0 54 80)" fill="#FABD17" fill-opacity="0.4"/>
<circle r="5" transform="matrix(0 -1 -1 0 9 65)" fill="#FABD17" fill-opacity="0.4"/>
<circle r="5" transform="matrix(0 -1 -1 0 24 65)" fill="#FABD17" fill-opacity="0.4"/>
<circle r="5" transform="matrix(0 -1 -1 0 39 65)" fill="#FABD17" fill-opacity="0.4"/>
<circle r="5" transform="matrix(0 -1 -1 0 9 50)" fill="#FABD17" fill-opacity="0.4"/>
<circle r="5" transform="matrix(0 -1 -1 0 24 50)" fill="#FABD17" fill-opacity="0.4"/>
<circle r="5" transform="matrix(0 -1 -1 0 9 35)" fill="#FABD17" fill-opacity="0.4"/>
</svg>
